<?xml version="1.0" encoding="UTF-8" standalone="no"?>
<svg
   xmlns:dc="http://purl.org/dc/elements/1.1/"
   xmlns:cc="http://creativecommons.org/ns#"
   xmlns:rdf="http://www.w3.org/1999/02/22-rdf-syntax-ns#"
   xmlns:svg="http://www.w3.org/2000/svg"
   xmlns="http://www.w3.org/2000/svg"
   width="12"
   height="12"
   id="svg4764"
   version="1.1">
  <defs
     id="defs4766" />
  <metadata
     id="metadata4769">
    <rdf:RDF>
      <cc:Work
         rdf:about="">
        <dc:format>image/svg+xml</dc:format>
        <dc:type
           rdf:resource="http://purl.org/dc/dcmitype/StillImage" />
        <dc:title />
      </cc:Work>
    </rdf:RDF>
  </metadata>
  <g
     id="layer1"
     transform="translate(0,-1040.3622)">
    <g
       transform="translate(-126,-250)"
       style="display:inline"
       id="airfield-12">
      <g
         transform="translate(-1,-1)"
         id="g12542">
        <path
           style="opacity:0.3;color:#000000;fill:#ffffff;fill-opacity:1;fill-rule:nonzero;stroke:#ffffff;stroke-width:2;stroke-linecap:butt;stroke-linejoin:round;stroke-miterlimit:4;stroke-opacity:1;stroke-dasharray:none;stroke-dashoffset:0;marker:none;visibility:visible;display:inline;overflow:visible;enable-background:accumulate"
           d="m 131.25,1292.8622 c -0.1385,0 -0.25,0.1115 -0.25,0.25 0,0.1385 0.1115,0.25 0.25,0.25 l 2,0 -0.25,1 0,1 -4,1 0,1 4,0 0,2 -1,0.5 0,0.5 3,0 0,-0.5 -1,-0.5 0,-2 4,0 0,-1 -4,-1 0,-1 -0.25,-1 2,0 c 0.1385,0 0.25,-0.1115 0.25,-0.25 0,-0.1385 -0.1115,-0.25 -0.25,-0.25 z"
           id="path6224" />
        <path
           id="path6200"
           d="m 131.25,1292.8622 c -0.1385,0 -0.25,0.1115 -0.25,0.25 0,0.1385 0.1115,0.25 0.25,0.25 l 2,0 -0.25,1 0,1 -4,1 0,1 4,0 0,2 -1,0.5 0,0.5 3,0 0,-0.5 -1,-0.5 0,-2 4,0 0,-1 -4,-1 0,-1 -0.25,-1 2,0 c 0.1385,0 0.25,-0.1115 0.25,-0.25 0,-0.1385 -0.1115,-0.25 -0.25,-0.25 z"
           style="fill:#444444;fill-opacity:1;stroke:none;display:inline" />
      </g>
      <rect
         style="opacity:0.5;color:#000000;fill:none;stroke:none;stroke-width:2;marker:none;visibility:visible;display:inline;overflow:visible;enable-background:accumulate"
         id="rect22192-14-7-4"
         width="11.999998"
         height="12.000007"
         x="126"
         y="1290.3622" />
    </g>
  </g>
</svg>
