<?xml version="1.0" encoding="UTF-8"?>
<svg xmlns="http://www.w3.org/2000/svg" version="1.1">
  <g transform="translate(0,-1040.3622)">
    <g transform="translate(-126,-250)">
      <g transform="translate(-1,-1)">
        <path style="opacity:0.3;color:#000000;fill:#ffffff;fill-opacity:1;fill-rule:nonzero;stroke:#ffffff;stroke-width:2;stroke-linecap:butt;stroke-linejoin:round;stroke-miterlimit:4;stroke-opacity:1;stroke-dasharray:none;stroke-dashoffset:0;marker:none;visibility:visible;display:inline;overflow:visible;enable-background:accumulate"
           d="m 131.25,1292.8622 c -0.1385,0 -0.25,0.1115 -0.25,0.25 0,0.1385 0.1115,0.25 0.25,0.25 l 2,0 -0.25,1 0,1 -4,1 0,1 4,0 0,2 -1,0.5 0,0.5 3,0 0,-0.5 -1,-0.5 0,-2 4,0 0,-1 -4,-1 0,-1 -0.25,-1 2,0 c 0.1385,0 0.25,-0.1115 0.25,-0.25 0,-0.1385 -0.1115,-0.25 -0.25,-0.25 z"/>
        <path d="m 131.25,1292.8622 c -0.1385,0 -0.25,0.1115 -0.25,0.25 0,0.1385 0.1115,0.25 0.25,0.25 l 2,0 -0.25,1 0,1 -4,1 0,1 4,0 0,2 -1,0.5 0,0.5 3,0 0,-0.5 -1,-0.5 0,-2 4,0 0,-1 -4,-1 0,-1 -0.25,-1 2,0 c 0.1385,0 0.25,-0.1115 0.25,-0.25 0,-0.1385 -0.1115,-0.25 -0.25,-0.25 z"
           style="fill:#444444;fill-opacity:1;stroke:none;display:inline"/>
      </g>
    </g>
  </g>
</svg>
